<svg width="30" height="30" viewBox="0 0 30 30" fill="none" xmlns="http://www.w3.org/2000/svg">
<circle cx="15" cy="15" r="14.325" stroke="white" stroke-width="1.35"/>
<path d="M15.0376 13.0245C17.352 13.0245 19.2422 11.1414 19.2422 8.81986C19.2422 6.49833 17.3592 4.61523 15.0376 4.61523C12.7161 4.61523 10.833 6.49833 10.833 8.81986C10.833 11.1414 12.7233 13.0245 15.0376 13.0245ZM15.0376 6.34021C16.4032 6.34021 17.5173 7.45425 17.5173 8.81986C17.5173 10.1855 16.4032 11.2995 15.0376 11.2995C13.672 11.2995 12.558 10.1855 12.558 8.81986C12.558 7.45425 13.672 6.34021 15.0376 6.34021Z" fill="white"/>
<path d="M21.2332 17.3441C19.7958 15.4035 17.7114 14.4188 15.0377 14.4188C12.364 14.4188 10.2797 15.4035 8.84219 17.3441C7.76408 18.8031 7.07409 20.7868 6.79378 23.2306C6.74347 23.7049 7.08128 24.129 7.55564 24.1865C8.03001 24.244 8.45407 23.899 8.51157 23.4246C9.05781 18.5947 11.2571 16.1438 15.0377 16.1438C18.8183 16.1438 21.0176 18.5947 21.5639 23.4246C21.6142 23.863 21.9879 24.1937 22.4192 24.1937C22.4479 24.1937 22.4838 24.1937 22.5198 24.1865C22.9942 24.1362 23.332 23.7049 23.2816 23.2306C23.0013 20.7868 22.3113 18.8031 21.2332 17.3441Z" fill="white"/>
</svg>
